<?xml version="1.0" standalone="no"?>
<!DOCTYPE svg PUBLIC "-//W3C//DTD SVG 20010904//EN"
 "http://www.w3.org/TR/2001/REC-SVG-20010904/DTD/svg10.dtd">
<svg version="1.0" xmlns="http://www.w3.org/2000/svg"
 width="1024.000000pt" height="1024.000000pt" viewBox="0 0 1024.000000 1024.000000"
 preserveAspectRatio="xMidYMid meet">

<g transform="translate(0.000000,1024.000000) scale(0.100000,-0.100000)"
fill="#000000" stroke="none">
<path d="M3263 9315 c-157 -34 -323 -168 -400 -322 -80 -159 -94 -337 -39
-488 14 -38 24 -71 22 -72 -2 -2 -212 -32 -468 -68 -581 -81 -725 -102 -782
-115 -182 -41 -345 -168 -427 -335 -81 -166 -74 112 -74 -2840 0 -2512 1
-2634 18 -2708 54 -229 217 -407 442 -482 58 -20 362 -74 1097 -194 l1017
-166 53 -90 c61 -103 189 -239 283 -300 117 -76 254 -125 409 -145 55 -7 640
-10 1846 -7 1928 3 1800 -1 1975 60 354 122 612 433 680 817 13 74 15 469 15
3080 0 1941 -4 3020 -10 3065 -65 455 -394 807 -842 899 -69 14 -289 16 -2087
16 l-2010 0 -38 73 c-55 106 -164 212 -273 266 -137 67 -271 86 -407 56z m222
-220 c161 -42 266 -155 296 -317 23 -125 -27 -278 -119 -359 -235 -209 -591
-81 -641 230 -32 198 92 395 279 445 72 19 113 19 185 1z m4565 -411 c145 -30
279 -103 375 -206 28 -29 34 -38 15 -20 l-36 32 -109 0 c-61 0 -145 7 -188 15
-68 13 -313 15 -1808 15 -1221 0 -1751 -3 -1802 -11 -80 -12 -195 -55 -260
-96 -66 -42 -170 -151 -216 -230 -52 -87 -87 -185 -100 -278 -10 -69 -19
-1554 -23 -3885 -1 -602 -5 -1304 -9 -1560 -5 -431 -7 -472 -28 -565 -12 -55
-24 -102 -27 -104 -2 -2 -4 1422 -4 3165 0 3488 -5 3215 61 3347 42 83 102
170 151 219 81 81 208 145 327 166 24 4 845 8 1824 9 1574 2 1791 0 1857 -13z
m450 -294 c12 -16 19 -30 16 -30 -2 0 -14 14 -26 30 -12 17 -19 30 -16 30 2 0
14 -13 26 -30z m70 -104 c0 -6 -11 5 -25 24 -14 19 -25 36 -25 39 1 10 50 -53
50 -63z m-3992 -3 c-10 -2 -26 -2 -35 0 -10 3 -2 5 17 5 19 0 27 -2 18 -5z
m3339 1 c-3 -3 -12 -4 -19 -1 -8 3 -5 6 6 6 11 1 17 -2 13 -5z m-3412 -14
c-27 -12 -43 -12 -25 0 8 5 22 9 30 9 10 0 8 -3 -5 -9z m3532 -30 c28 -16 55
-35 59 -42 6 -11 5 -11 -8 0 -8 7 -40 26 -69 42 -30 16 -49 30 -44 30 6 0 33
-14 62 -30z m-3625 -7 c-30 -14 -84 -52 -120 -85 l-67 -61 65 65 c59 57 138
109 165 108 6 -1 -14 -12 -43 -27z m3799 -157 c21 -32 39 -63 39 -70 0 -6 -13
12 -29 39 -16 28 -48 73 -72 100 -32 37 -35 42 -10 20 18 -16 50 -56 72 -89z
m-6334 -12 c-3 -3 -12 -4 -19 -1 -8 3 -5 6 6 6 11 1 17 -2 13 -5z m6036 -17
c39 -17 104 -87 123 -133 21 -51 21 -3512 0 -3553 -28 -53 -99 -108 -157 -121
-40 -8 -479 -10 -1699 -8 -1584 3 -1646 4 -1680 22 -49 26 -79 55 -101 98 -19
37 -19 79 -17 1785 l3 1748 24 48 c25 52 71 92 128 113 56 20 3328 20 3376 1z
m-6230 -14 c-7 -2 -19 -2 -25 0 -7 3 -2 5 12 5 14 0 19 -2 13 -5z m6596 -111
c5 -23 5 -40 1 -37 -4 2 -10 19 -13 37 -3 18 -8 42 -12 53 -5 16 -5 17 4 4 6
-9 14 -34 20 -57z m-4118 -13 c-5 -26 -9 -34 -10 -19 -1 27 9 73 15 67 2 -2 0
-23 -5 -48z m4126 -2652 c-1 -479 -2 -87 -2 873 0 960 1 1352 2 872 2 -479 2
-1265 0 -1745z m-5790 2189 c90 -24 145 -57 219 -130 110 -109 154 -215 154
-367 0 -257 -177 -469 -426 -511 -249 -41 -504 148 -555 410 -48 251 97 509
331 589 77 27 197 30 277 9z m-1170 -328 c-3 -8 -6 -5 -6 6 -1 11 2 17 5 13 3
-3 4 -12 1 -19z m320 -110 c-3 -8 -6 -5 -6 6 -1 11 2 17 5 13 3 -3 4 -12 1
-19z m0 -115 c-3 -10 -5 -2 -5 17 0 19 2 27 5 18 2 -10 2 -26 0 -35z m1450
-65 c-3 -7 -5 -2 -5 12 0 14 2 19 5 13 2 -7 2 -19 0 -25z m-1770 -1105 c-3
-10 -5 -4 -5 12 0 17 2 24 5 18 2 -7 2 -21 0 -30z m0 -730 c-3 -10 -5 -2 -5
17 0 19 2 27 5 18 2 -10 2 -26 0 -35z m2830 -630 c-3 -10 -5 -4 -5 12 0 17 2
24 5 18 2 -7 2 -21 0 -30z m4120 -5 c-3 -8 -6 -5 -6 6 -1 11 2 17 5 13 3 -3 4
-12 1 -19z m-4022 -192 c45 -60 45 -60 6 -18 -41 45 -101 152 -101 181 0 9 11
-10 25 -43 13 -32 45 -86 70 -120z m4005 137 c-11 -17 -11 -17 -6 0 3 10 6 24
7 30 0 9 2 9 5 0 3 -7 0 -20 -6 -30z m-48 -95 c-37 -53 -105 -118 -153 -146
-61 -37 -56 -24 7 16 62 40 118 97 149 150 11 17 21 30 23 27 2 -2 -10 -23
-26 -47z m-3881 -115 c13 -16 12 -17 -3 -4 -17 13 -22 21 -14 21 2 0 10 -8 17
-17z m119 -71 c-10 -4 -86 34 -94 46 -2 4 20 -4 49 -18 30 -14 50 -26 45 -28z
m3540 8 c-8 -5 -22 -9 -30 -9 -10 0 -8 3 5 9 27 12 43 12 25 0z m-3493 -16
c-3 -3 -12 -4 -19 -1 -8 3 -5 6 6 6 11 1 17 -2 13 -5z m3436 -1 c-7 -2 -19 -2
-25 0 -7 3 -2 5 12 5 14 0 19 -2 13 -5z m-886 -10 c-467 -2 -1227 -2 -1690 0
-463 1 -81 2 848 2 930 0 1308 -1 842 -2z m406 -110 c-18 -2 -48 -2 -65 0 -18
2 -4 4 32 4 36 0 50 -2 33 -4z m-130 -10 c-7 -2 -21 -2 -30 0 -10 3 -4 5 12 5
17 0 24 -2 18 -5z m240 0 c-7 -2 -21 -2 -30 0 -10 3 -4 5 12 5 17 0 24 -2 18
-5z m-313 -13 c-34 -11 -60 -11 -35 0 11 5 29 8 40 8 16 0 15 -2 -5 -8z m397
-6 c-3 -3 -12 -4 -19 -1 -8 3 -5 6 6 6 11 1 17 -2 13 -5z m-472 -14 c-27 -12
-43 -12 -25 0 8 5 22 9 30 9 10 0 8 -3 -5 -9z m535 -5 c33 -19 21 -19 -21 0
-19 8 -27 14 -19 14 8 0 26 -6 40 -14z m-647 -44 c-83 -46 -148 -97 -220 -174
-36 -40 -52 -53 -34 -30 48 63 151 153 222 196 35 20 68 37 74 37 5 0 -14 -13
-42 -29z m743 -2 c19 -11 34 -23 34 -26 0 -4 -62 30 -79 44 -16 12 18 -1 45
-18z m-3138 -36 c-10 -2 -26 -2 -35 0 -10 3 -2 5 17 5 19 0 27 -2 18 -5z m130
0 c-10 -2 -26 -2 -35 0 -10 3 -2 5 17 5 19 0 27 -2 18 -5z m3208 -126 c60 -64
113 -137 101 -137 -2 0 -20 24 -41 54 -35 51 -128 145 -191 194 -17 13 -9 9
16 -7 25 -16 77 -63 115 -104z m-3438 104 c-72 -29 -112 -56 -174 -124 -31
-34 -52 -52 -46 -40 37 68 197 184 252 183 8 -1 -6 -9 -32 -19z m338 -10 c34
-16 65 -34 69 -41 4 -7 -4 -4 -19 5 -14 9 -52 28 -83 41 -32 13 -51 24 -43 24
8 0 43 -13 76 -29z m129 -91 c21 -22 37 -40 34 -40 -3 0 -23 18 -44 40 -21 22
-37 40 -34 40 3 0 23 -18 44 -40z m70 -91 c22 -41 11 -36 -14 7 -12 19 -16 32
-11 29 6 -3 17 -19 25 -36z m-289 -22 c17 -9 45 -32 61 -51 82 -93 65 -240
-36 -311 -39 -27 -50 -30 -120 -30 -70 0 -81 3 -115 28 -86 66 -117 172 -77
263 26 57 45 80 86 102 62 32 138 32 201 -1z m-481 6 c-4 -10 -16 -45 -26 -78
-14 -45 -18 -50 -13 -21 6 41 33 116 41 116 3 0 2 -8 -2 -17z m2410 -43 c-9
-16 -18 -30 -21 -30 -2 0 2 14 11 30 9 17 18 30 21 30 2 0 -2 -13 -11 -30z
m1407 -65 c17 -37 29 -68 27 -70 -3 -2 -18 28 -36 66 -17 38 -29 69 -27 69 3
0 19 -29 36 -65z m-2994 -90 c0 -96 -5 -81 -11 35 -2 47 0 76 4 65 4 -11 7
-56 7 -100z m1523 18 c-12 -20 -14 -14 -5 12 4 9 9 14 11 11 3 -2 0 -13 -6
-23z m-2394 -35 c-3 -8 -6 -5 -6 6 -1 11 2 17 5 13 3 -3 4 -12 1 -19z m2377
-27 c-4 -17 -9 -30 -11 -27 -3 2 -2 19 2 36 9 41 17 33 9 -9z m1533 -3 c-3 -8
-6 -5 -6 6 -1 11 2 17 5 13 3 -3 4 -12 1 -19z m-3894 -48 c4 -30 3 -38 -3 -25
-8 19 -14 83 -6 74 2 -2 6 -24 9 -49z m3904 -2 c-3 -7 -5 -2 -5 12 0 14 2 19
5 13 2 -7 2 -19 0 -25z m-3060 -10 c-3 -8 -6 -5 -6 6 -1 11 2 17 5 13 3 -3 4
-12 1 -19z m1500 -15 c-3 -10 -5 -4 -5 12 0 17 2 24 5 18 2 -7 2 -21 0 -30z
m-1517 -40 c-11 -17 -11 -17 -6 0 3 10 6 24 7 30 0 9 2 9 5 0 3 -7 0 -20 -6
-30z m3087 -135 c-2 -35 -3 -9 -3 57 0 66 1 94 3 63 2 -32 2 -86 0 -120z
m-3887 117 c0 -5 -5 -3 -10 5 -5 8 -10 20 -10 25 0 6 5 3 10 -5 5 -8 10 -19
10 -25z m781 -28 c-10 -9 -11 -8 -5 6 3 10 9 15 12 12 3 -3 0 -11 -7 -18z
m-761 -7 c6 -11 8 -20 6 -20 -3 0 -10 9 -16 20 -6 11 -8 20 -6 20 3 0 10 -9
16 -20z m165 -157 c27 -14 67 -32 90 -39 38 -13 39 -13 5 -7 -74 12 -179 80
-235 153 -11 14 5 1 35 -29 30 -29 77 -65 105 -78z m525 71 c-25 -25 -54 -50
-65 -56 -11 -6 7 14 40 45 73 68 85 74 25 11z m335 36 c-3 -5 -14 -10 -23 -9
-14 0 -13 2 3 9 27 11 27 11 20 0z m78 3 c-13 -2 -33 -2 -45 0 -13 2 -3 4 22
4 25 0 35 -2 23 -4z m90 0 c-13 -2 -33 -2 -45 0 -13 2 -3 4 22 4 25 0 35 -2
23 -4z m-267 -44 c-33 -17 -82 -54 -109 -82 -28 -28 -45 -43 -39 -32 25 46
160 145 197 144 6 0 -17 -14 -49 -30z m409 -5 c53 -36 83 -63 107 -99 14 -20
8 -16 -18 12 -22 23 -63 58 -93 78 -29 19 -49 35 -44 35 4 0 26 -12 48 -26z
m962 -51 c-3 -10 -5 -4 -5 12 0 17 2 24 5 18 2 -7 2 -21 0 -30z m-1717 -18 c0
-10 -84 -45 -105 -44 -11 0 -2 6 20 13 23 7 50 18 60 24 23 13 25 14 25 7z
m3277 -27 c-3 -7 -5 -2 -5 12 0 14 2 19 5 13 2 -7 2 -19 0 -25z m-1532 -86
c-5 -5 -25 69 -24 88 0 8 7 -7 14 -35 8 -27 12 -51 10 -53z m-1907 61 c-21 -2
-55 -2 -75 0 -21 2 -4 4 37 4 41 0 58 -2 38 -4z m3417 -55 c-19 -57 -62 -148
-70 -148 -3 0 5 21 19 48 13 26 32 73 42 104 9 32 19 56 22 54 2 -3 -4 -29
-13 -58z m-3082 7 c-9 -19 -18 -33 -21 -31 -4 5 26 66 33 66 3 0 -3 -16 -12
-35z m737 -6 c12 -23 20 -43 18 -45 -3 -2 -14 17 -26 41 -27 56 -20 60 8 4z
m-289 -17 c91 -48 125 -152 79 -248 -65 -132 -255 -133 -319 -2 -47 98 -17
210 68 255 58 30 107 29 172 -5z m1169 -91 c-1 -12 -39 64 -39 79 0 8 8 -5 19
-29 11 -24 20 -46 20 -50z m-841 -65 c1 -97 -5 -79 -11 29 -3 50 -2 79 2 65 5
-14 8 -56 9 -94z m-812 72 c-3 -7 -5 -2 -5 12 0 14 2 19 5 13 2 -7 2 -19 0
-25z m-10 -55 c-3 -10 -5 -4 -5 12 0 17 2 24 5 18 2 -7 2 -21 0 -30z m1726
-54 c21 -33 69 -89 105 -126 55 -55 59 -60 20 -29 -51 41 -146 160 -172 216
-17 37 -15 34 47 -61z m1310 20 c-25 -42 -137 -164 -176 -190 -18 -13 -3 5 33
38 36 33 85 88 110 122 49 67 61 78 33 30z m-3026 -66 c-3 -10 -5 -4 -5 12 0
17 2 24 5 18 2 -7 2 -21 0 -30z m800 -25 c-3 -8 -6 -5 -6 6 -1 11 2 17 5 13 3
-3 4 -12 1 -19z m-752 -92 c10 -14 15 -26 12 -26 -10 0 -45 65 -51 95 -5 26
-4 25 8 -7 8 -20 22 -48 31 -62z m720 7 c-40 -74 -153 -183 -188 -183 -6 0 9
13 34 28 59 38 133 121 155 177 11 24 20 40 22 35 2 -5 -8 -31 -23 -57z m1228
-94 c39 -21 68 -39 64 -39 -14 0 -122 57 -143 76 -11 11 -14 15 -7 10 7 -5 46
-26 86 -47z m812 51 c-3 -5 -16 -15 -28 -21 -19 -9 -19 -8 3 10 28 23 34 26
25 11z m-2694 -52 c31 -43 17 -34 -21 15 -19 23 -26 36 -17 28 10 -8 27 -27
38 -43z m2639 17 c0 -6 -76 -45 -87 -45 -4 1 12 12 37 25 50 27 50 27 50 20z
m-2530 -102 c3 -3 -9 1 -26 10 -17 9 -37 23 -44 33 -12 14 55 -27 70 -43z
m2420 47 c-8 -5 -19 -10 -25 -10 -5 0 -3 5 5 10 8 5 20 10 25 10 6 0 3 -5 -5
-10z m-520 -15 c19 -7 28 -14 20 -14 -8 0 -28 6 -45 14 -39 17 -21 18 25 0z
m67 -21 c-3 -3 -12 -4 -19 -1 -8 3 -5 6 6 6 11 1 17 -2 13 -5z m340 0 c-3 -3
-12 -4 -19 -1 -8 3 -5 6 6 6 11 1 17 -2 13 -5z m-279 -11 c-10 -2 -26 -2 -35
0 -10 3 -2 5 17 5 19 0 27 -2 18 -5z m235 0 c-7 -2 -21 -2 -30 0 -10 3 -4 5
12 5 17 0 24 -2 18 -5z m-2218 -13 c13 -6 15 -9 5 -9 -8 0 -22 4 -30 9 -18 12
-2 12 25 0z m290 0 c-3 -5 -14 -10 -23 -9 -14 0 -13 2 3 9 27 11 27 11 20 0z
m1832 3 c-20 -2 -52 -2 -70 0 -17 2 0 4 38 4 39 0 53 -2 32 -4z m-2070 -19
c-3 -3 -12 -4 -19 -1 -8 3 -5 6 6 6 11 1 17 -2 13 -5z m190 0 c-3 -3 -12 -4
-19 -1 -8 3 -5 6 6 6 11 1 17 -2 13 -5z m-74 -11 c-18 -2 -48 -2 -65 0 -18 2
-4 4 32 4 36 0 50 -2 33 -4z m-550 -130 c-62 -2 -165 -2 -230 0 -65 1 -14 3
112 3 127 0 180 -2 118 -3z m330 0 c-40 -2 -106 -2 -145 0 -40 1 -8 3 72 3 80
0 112 -2 73 -3z m210 0 c-23 -2 -64 -2 -90 0 -26 2 -7 3 42 3 50 0 71 -1 48
-3z m95 0 c-10 -2 -26 -2 -35 0 -10 3 -2 5 17 5 19 0 27 -2 18 -5z m1970 0
c-158 -2 -419 -2 -580 0 -161 1 -32 2 287 2 319 0 451 -1 293 -2z m-2984 -22
c-30 -18 -49 -52 -57 -101 -4 -24 -4 -24 -6 3 -2 48 47 117 84 117 5 0 -4 -9
-21 -19z m1096 -16 c13 -14 21 -25 18 -25 -2 0 -15 11 -28 25 -13 14 -21 25
-18 25 2 0 15 -11 28 -25z m971 -4 c-12 -16 -21 -35 -22 -43 0 -9 -2 -10 -6
-1 -4 12 32 73 43 73 3 0 -4 -13 -15 -29z m1278 -44 c-1 -18 -2 -17 -9 7 -5
15 -15 36 -22 45 -7 9 -3 6 10 -7 12 -13 22 -33 21 -45z m-6012 7 c-3 -3 -12
-4 -19 -1 -8 3 -5 6 6 6 11 1 17 -2 13 -5z m3790 -16 c-3 -8 -6 -5 -6 6 -1 11
2 17 5 13 3 -3 4 -12 1 -19z m-5 -70 c-6 -6 -7 0 -4 19 5 21 7 23 10 9 2 -10
0 -22 -6 -28z m2225 20 c-3 -8 -6 -5 -6 6 -1 11 2 17 5 13 3 -3 4 -12 1 -19z
m-1274 -48 c7 -9 2 -5 -10 8 -13 13 -23 31 -22 40 0 11 4 9 10 -8 6 -13 15
-32 22 -40z m-2099 5 l17 -30 -20 24 c-12 13 -21 28 -21 34 0 12 0 11 24 -28z
m3355 8 c-17 -22 -42 -42 -52 -43 -7 0 54 59 62 60 2 0 -3 -8 -10 -17z m-2219
-7 c0 -2 -8 -10 -17 -17 -16 -13 -17 -12 -4 4 13 16 21 21 21 13z m-2933 -32
c-3 -3 -12 -4 -19 -1 -8 3 -5 6 6 6 11 1 17 -2 13 -5z m1859 -12 c-10 -2 -22
0 -28 6 -6 6 0 7 19 4 21 -5 23 -7 9 -10z m3019 5 c83 -1 -96 -4 -397 -5 -301
-1 -549 1 -551 6 -5 6 570 6 948 -1z m-2852 -4 c-18 -2 -48 -2 -65 0 -18 2 -4
4 32 4 36 0 50 -2 33 -4z m130 0 c-13 -2 -35 -2 -50 0 -16 2 -5 4 22 4 28 0
40 -2 28 -4z m130 0 c-18 -2 -48 -2 -65 0 -18 2 -4 4 32 4 36 0 50 -2 33 -4z
m74 1 c-3 -3 -12 -4 -19 -1 -8 3 -5 6 6 6 11 1 17 -2 13 -5z m71 -1 c-10 -2
-28 -2 -40 0 -13 2 -5 4 17 4 22 1 32 -1 23 -4z m55 0 c-7 -2 -19 -2 -25 0 -7
3 -2 5 12 5 14 0 19 -2 13 -5z m165 0 c-10 -2 -28 -2 -40 0 -13 2 -5 4 17 4
22 1 32 -1 23 -4z m100 0 c-16 -2 -40 -2 -55 0 -16 2 -3 4 27 4 30 0 43 -2 28
-4z m105 0 c-13 -2 -35 -2 -50 0 -16 2 -5 4 22 4 28 0 40 -2 28 -4z m2220 0
c-7 -2 -21 -2 -30 0 -10 3 -4 5 12 5 17 0 24 -2 18 -5z m-4796 -39 c-3 -3 -12
-4 -19 -1 -8 3 -5 6 6 6 11 1 17 -2 13 -5z m1596 -51 c-7 -2 -19 -2 -25 0 -7
3 -2 5 12 5 14 0 19 -2 13 -5z m60 0 c-7 -2 -19 -2 -25 0 -7 3 -2 5 12 5 14 0
19 -2 13 -5z m50 0 c-7 -2 -19 -2 -25 0 -7 3 -2 5 12 5 14 0 19 -2 13 -5z
m180 0 c-13 -2 -35 -2 -50 0 -16 2 -5 4 22 4 28 0 40 -2 28 -4z m130 0 c-7 -2
-19 -2 -25 0 -7 3 -2 5 12 5 14 0 19 -2 13 -5z m60 0 c-7 -2 -19 -2 -25 0 -7
3 -2 5 12 5 14 0 19 -2 13 -5z m120 0 c-7 -2 -19 -2 -25 0 -7 3 -2 5 12 5 14
0 19 -2 13 -5z m84 1 c-3 -3 -12 -4 -19 -1 -8 3 -5 6 6 6 11 1 17 -2 13 -5z
m160 0 c-3 -3 -12 -4 -19 -1 -8 3 -5 6 6 6 11 1 17 -2 13 -5z m185 -16 c13
-13 16 -17 6 -9 -9 7 -32 17 -50 21 -31 7 -31 8 -6 9 15 1 37 -9 50 -21z
m-1111 -31 c-10 -9 -11 -8 -5 6 3 10 9 15 12 12 3 -3 0 -11 -7 -18z m-694 -19
c-3 -8 -6 -5 -6 6 -1 11 2 17 5 13 3 -3 4 -12 1 -19z m1851 -24 c-3 -14 -5
-12 -10 9 -3 19 -2 25 4 19 6 -6 8 -18 6 -28z m-1841 -16 c-3 -8 -6 -5 -6 6
-1 11 2 17 5 13 3 -3 4 -12 1 -19z m677 -68 c4 -8 0 -6 -8 4 -9 11 -15 36 -15
55 l2 36 6 -40 c4 -22 10 -47 15 -55z m1166 40 c0 -19 -55 -90 -70 -90 -4 0 7
15 26 34 19 19 34 43 34 55 0 12 2 21 5 21 3 0 5 -9 5 -20z m-1120 -86 c0 -2
-9 0 -20 6 -11 6 -20 13 -20 16 0 2 9 0 20 -6 11 -6 20 -13 20 -16z m778 -11
c-142 -2 -374 -2 -515 0 -142 1 -26 2 257 2 283 0 399 -1 258 -2z"/>
<path d="M3495 9070 c3 -5 11 -10 16 -10 6 0 7 5 4 10 -3 6 -11 10 -16 10 -6
0 -7 -4 -4 -10z"/>
<path d="M3535 9060 c3 -6 2 -10 -4 -10 -5 0 6 -26 25 -57 40 -67 49 -103 49
-204 0 -66 -4 -83 -34 -142 -32 -64 -82 -116 -139 -146 -12 -7 -21 -15 -18
-19 6 -10 -53 -16 -149 -15 -89 0 -144 5 -142 13 1 3 -13 19 -31 37 -17 17
-32 28 -31 25 1 -17 68 -98 87 -108 12 -6 20 -13 17 -16 -3 -3 6 -13 21 -23
22 -14 28 -15 36 -4 8 11 9 10 5 -2 -10 -31 65 -54 173 -54 82 0 103 4 151 26
64 30 131 87 164 139 29 47 58 136 52 161 -3 10 0 22 6 26 7 4 3 9 -9 14 -14
6 -15 8 -3 8 13 1 15 10 7 61 -14 105 -90 225 -169 266 -32 16 -41 10 -28 -23
6 -16 6 -22 -1 -18 -6 3 -10 12 -10 20 0 7 -6 16 -12 18 -10 4 -10 8 0 15 11
7 11 10 -3 15 -9 4 -13 3 -10 -3z m81 -53 l25 -23 -21 -19 c-20 -18 -21 -18
-14 0 6 14 4 16 -7 10 -11 -6 -12 -5 -2 5 10 11 9 17 -4 32 -23 26 -7 22 23
-5z m74 -87 c0 -5 -5 -10 -11 -10 -5 0 -7 5 -4 10 3 6 8 10 11 10 2 0 4 -4 4
-10z m-12 -145 c-3 -3 -9 2 -12 12 -6 14 -5 15 5 6 7 -7 10 -15 7 -18z m-11
-200 c0 -8 -4 -12 -9 -9 -5 3 -6 10 -3 15 9 13 12 11 12 -6z m38 -65 c-3 -5
-12 -10 -18 -10 -7 0 -6 4 3 10 19 12 23 12 15 0z m-29 -29 c-9 -14 -45 -20
-53 -9 -3 6 -2 9 3 6 5 -3 18 -2 29 3 27 10 27 10 21 0z m-228 -26 c-3 -3 -9
2 -12 12 -6 14 -5 15 5 6 7 -7 10 -15 7 -18z m-39 -8 c0 -9 -2 -9 -5 0 -3 7
-13 9 -22 6 -14 -4 -14 -3 -2 5 16 12 30 7 29 -11z m-211 0 c9 3 14 3 10 -2
-4 -4 0 -13 9 -20 14 -10 13 -12 -6 -10 -22 1 -41 21 -40 40 0 6 3 5 5 -2 3
-7 13 -9 22 -6z m168 -9 c4 -6 3 -8 -4 -4 -6 3 -22 2 -36 -4 -15 -5 -26 -6
-26 0 0 5 10 11 23 13 12 2 25 5 29 6 4 0 10 -4 14 -11z m70 -7 c-4 -5 0 -11
6 -14 7 -2 1 -4 -15 -3 -24 1 -25 2 -10 14 20 14 26 15 19 3z m-164 -13 c-14
-14 -16 -32 -4 -24 5 3 9 -1 9 -8 0 -20 -24 -8 -30 14 -6 22 0 30 22 30 12 0
12 -3 3 -12z m95 -14 c-3 -3 -12 -4 -19 -1 -8 3 -5 6 6 6 11 1 17 -2 13 -5z
m-57 -29 c5 3 12 0 16 -6 4 -8 3 -9 -4 -5 -7 4 -12 3 -12 -2 0 -5 -6 -9 -14
-9 -8 0 -11 8 -8 21 3 11 7 15 10 8 2 -7 8 -10 12 -7z m72 -4 c11 6 22 8 26 5
3 -3 0 -6 -7 -6 -7 0 -10 -4 -7 -8 3 -5 -5 -8 -17 -7 -12 1 -22 8 -23 16 -1 9
1 9 3 2 3 -10 10 -10 25 -2z"/>
<path d="M6110 7409 c-310 -23 -594 -160 -821 -396 -384 -399 -468 -983 -213
-1484 183 -358 516 -609 907 -684 186 -35 381 -29 572 20 434 110 793 473 910
919 38 146 48 244 42 405 -6 154 -23 245 -73 381 -86 241 -270 476 -483 619
-119 79 -182 111 -307 154 -168 58 -342 80 -534 66z m347 -235 c-3 -3 -12 -4
-19 -1 -8 3 -5 6 6 6 11 1 17 -2 13 -5z m-603 -184 c91 -34 70 -187 -34 -240
-57 -29 -95 -26 -132 10 -28 28 -30 35 -26 83 5 64 35 109 92 137 46 22 63 24
100 10z m464 -585 c68 -21 152 -97 182 -167 84 -191 -54 -406 -267 -416 -60
-4 -80 0 -125 20 -72 33 -124 80 -156 142 -23 44 -27 63 -27 136 0 69 4 93 23
127 35 67 79 110 144 143 71 35 142 40 226 15z m-607 -395 c3 0 11 -19 18 -42
35 -118 144 -249 257 -310 143 -77 321 -77 472 -1 117 59 239 202 263 309 l12
54 279 0 278 0 0 -24 c0 -14 -7 -56 -15 -94 -92 -440 -440 -781 -874 -857
-271 -48 -553 18 -795 185 -87 60 -224 199 -279 283 -85 128 -157 316 -180
471 l-6 39 282 -6 c155 -4 285 -7 288 -7z"/>
<path d="M6181 6270 c-44 -10 -101 -68 -110 -111 -19 -90 40 -179 128 -193 53
-8 123 22 155 67 30 41 29 131 -2 175 -38 52 -104 77 -171 62z"/>
</g>
</svg>
